<svg xmlns="http://www.w3.org/2000/svg" version="1.1" xmlns:xlink="http://www.w3.org/1999/xlink" xmlns:svgjs="http://svgjs.dev/svgjs" width="128" height="128" viewBox="0 0 128 128"><g transform="matrix(0.8046875,0,0,0.8046875,12.760752631578946,12.760752631578946)"><svg viewBox="0 0 95 95" data-background-color="#444444" preserveAspectRatio="xMidYMid meet" height="128" width="128" xmlns="http://www.w3.org/2000/svg" xmlns:xlink="http://www.w3.org/1999/xlink"><g id="tight-bounds" transform="matrix(1,0,0,1,-0.24049999999999727,-0.24049999999999727)"><svg viewBox="0 0 95.481 95.481" height="95.481" width="95.481"><g><svg viewBox="0 0 95.481 95.481" height="95.481" width="95.481"><g><svg viewBox="0 0 95.481 95.481" height="95.481" width="95.481"><g><svg viewBox="0 0 95.481 95.481" height="95.481" width="95.481"><g><svg viewBox="0 0 95.481 95.481" height="95.481" width="95.481"><g><svg viewBox="0 0 95.481 95.481" height="95.481" width="95.481"><g><svg xmlns="http://www.w3.org/2000/svg" xmlns:xlink="http://www.w3.org/1999/xlink" version="1.1" x="0" y="0" viewBox="0 0 100 100" enable-background="new 0 0 100 100" xml:space="preserve" height="95.481" width="95.481" class="icon-icon-0" data-fill-palette-color="accent" id="icon-0"><g fill="#7fdbff" data-fill-palette-color="accent"><path d="M50 0C39.035 0 28.896 3.529 20.654 9.514L0 0l9.514 20.654C3.529 28.896 0 39.036 0 50.001c0 16.42 7.916 30.989 20.139 40.104-1.227-2.801-3.123-7.131-3.123-7.131-0.482-1.098-0.105-2.396 1.041-2.898s2.467-0.018 2.947 1.08l-1.012-2.311c-0.48-1.098 0.059-2.396 1.205-2.898s2.467-0.02 2.947 1.08l-0.928-2.117c-0.48-1.099 0.059-2.397 1.205-2.899s2.467-0.018 2.947 1.08l-4.174-10.42c-0.48-1.1-0.297-2.336 0.85-2.838 1.146-0.504 2.182 0.113 2.662 1.213 0 0 9.006 18.204 10.867 22.448 1.828 4.178 0.189 7.346 3.775 15.76C44.16 99.742 47.051 100 50 100c1.525 0 3.035-0.068 4.527-0.203 1.188-1.678 7.018-10.822 0.494-20.516-1.324-1.967-1.586-1.152-6.193-0.254s-6.303 0.486-8.008-2.396c-1.221-2.063-0.172-3.884-1.148-5.134-0.879-1.125-2.996-0.369-3.539-0.391-0.543-0.023-1.33-1.166-0.641-2.313 0.463-0.764 2.01-1.209-0.246-1.383-0.889-0.068-1.607-0.633-1.48-1.414 0.172-1.061 1.018-1.158 2.156-2.693 0.734-0.99 0.291-2.205-1.422-2.141-0.66 0.025-2.602 0.094-3.555-0.881-1.826-1.869 4.916-8.367 5.215-11.891 0.104-1.238-0.104-1.941-1.068-4.588-1.107-3.039-0.195-9.693 1.904-14.449 2.1-4.755 12.795-23.009 37.141-14.034 18.609 6.859 16.93 29.179 13.553 34.534-3.375 5.357-5.721 9.275-4.922 16.326 0.799 7.053 2.361 11.187 4.184 13.333 0.391 0.463 1.1 1.088 2.004 1.836C95.865 72.774 100 61.87 100 50.001 100 22.387 77.615 0 50 0z" fill="#7fdbff" data-fill-palette-color="accent"></path></g></svg></g></svg></g></svg></g></svg></g></svg></g></svg></g><defs></defs></svg><rect width="95.481" height="95.481" fill="none" stroke="none" visibility="hidden"></rect></g></svg></g></svg>