<svg xmlns="http://www.w3.org/2000/svg" version="1.1" xmlns:xlink="http://www.w3.org/1999/xlink" xmlns:svgjs="http://svgjs.dev/svgjs" width="1000" height="164" viewBox="0 0 1000 164"><g transform="matrix(1,0,0,1,-0.6060606060606233,0.06354517944544114)"><svg viewBox="0 0 396 65" data-background-color="#444444" preserveAspectRatio="xMidYMid meet" height="164" width="1000" xmlns="http://www.w3.org/2000/svg" xmlns:xlink="http://www.w3.org/1999/xlink"><g id="tight-bounds" transform="matrix(1,0,0,1,0.2400000000000091,-0.025185589414348897)"><svg viewBox="0 0 395.52 65.0503711788287" height="65.0503711788287" width="395.52"><g><svg viewBox="0 0 495.5941538222745 81.50936402760033" height="65.0503711788287" width="395.52"><g transform="matrix(1,0,0,1,100.07415382227451,1.4351624635829339)"><svg viewBox="0 0 395.52 78.63903910043446" height="78.63903910043446" width="395.52"><g><svg viewBox="0 0 395.52 78.63903910043446" height="78.63903910043446" width="395.52"><g><svg viewBox="0 0 395.52 78.63903910043446" height="78.63903910043446" width="395.52"><g transform="matrix(1,0,0,1,0,0)"><svg width="395.52" viewBox="1 -38 195.6300048828125 38.900001525878906" height="78.63903910043446" data-palette-color="#ffffff"><path d="M6.6-0.25L6.6-0.25 3.05 0Q1.8 0 1.75-0.15 1.7-0.3 1.7-0.5L1.7-0.5Q1.7-1 2.3-1.15L2.3-1.15Q3.75-1.55 4.17-2.43 4.6-3.3 4.6-5L4.6-5 4.8-22.05 4.8-24.5Q4.8-31.3 4.5-32.8 4.2-34.3 2.7-34.3L2.7-34.3 2.05-34.3 1.85-34.35Q1-34.35 1-34.8 1-35.25 1.53-35.52 2.05-35.8 3.03-36.05 4-36.3 5.8-37.1 7.6-37.9 8.05-37.9L8.05-37.9Q8.7-37.9 8.7-36.75L8.7-36.75Q8.7-36.5 8.53-35.55 8.35-34.6 8.33-31.88 8.3-29.15 8.22-26.03 8.15-22.9 8.1-21.8L8.1-21.8Q8-19.7 8-18.85 8-18 8.4-18L8.4-18Q8.5-18 9.43-18.93 10.35-19.85 11.98-20.78 13.6-21.7 15.45-21.7L15.45-21.7Q19.5-21.7 21.75-19.3 24-16.9 24-11.85L24-11.85 24-4.6Q24-3.25 24.5-2.5 25-1.75 25.65-1.7L25.65-1.7Q28.35-1.45 28.35-0.65 28.35 0.15 26.8 0.15L26.8 0.15 22.6-0.1 18.75 0.05Q17.6 0.05 17.6-0.45L17.6-0.45Q17.6-1.35 18.95-1.35L18.95-1.35Q19.45-1.35 19.88-1.9 20.3-2.45 20.3-3.6L20.3-3.6 20.35-4.9 20.4-11.9Q20.4-14.95 18.55-17.18 16.7-19.4 14.28-19.4 11.85-19.4 9.35-17.45L9.35-17.45Q8.45-16.75 8.2-15.18 7.95-13.6 7.95-8.2L7.95-8.2 7.95-7.05Q7.95-4.8 8.3-3.4L8.3-3.4Q8.85-1.45 11.05-1.3L11.05-1.3Q11.75-1.25 12.13-1.13 12.5-1 12.5-0.6L12.5-0.6Q12.5 0 11.95 0L11.95 0 10.65-0.05Q9.35-0.1 8.03-0.18 6.7-0.25 6.6-0.25ZM33.55-7.8L33.55-7.8 33.6-16.8Q33.6-17.8 33.07-18.4 32.55-19 32.1-19L32.1-19 31.2-19Q30.3-19 30.3-19.7 30.3-20.4 31.27-20.6 32.25-20.8 33.65-20.8L33.65-20.8 36.5-21.05Q37.35-21.05 37.5-20.7 37.65-20.35 37.65-18.95 37.65-17.55 37.52-15.13 37.4-12.7 37.4-9.75L37.4-9.75Q37.4-5.35 39.1-3.53 40.8-1.7 42.95-1.7L42.95-1.7Q46.15-1.7 47.6-3.05 49.05-4.4 49.05-7.8L49.05-7.8 48.95-14.7Q48.95-17.2 48.55-18.07 48.15-18.95 46.85-19.07 45.55-19.2 45.55-19.75L45.55-19.75Q45.55-20.9 49.95-20.9L49.95-20.9 51.75-21.15Q52.5-21.15 52.72-20.9 52.95-20.65 52.95-20.18 52.95-19.7 52.92-18.98 52.9-18.25 52.87-17.05 52.85-15.85 52.8-14.35L52.8-14.35Q52.7-11.35 52.7-7.65 52.7-3.95 53-2.85 53.3-1.75 54.1-1.75L54.1-1.75 55.4-1.8Q56.6-1.8 56.6-1.2 56.6-0.6 56.25-0.45 55.9-0.3 54.9-0.3 53.9-0.3 51.87-0.03 49.85 0.25 49.7 0.25L49.7 0.25Q49.35 0.25 49.12-1.03 48.9-2.3 48.82-2.3 48.75-2.3 47.85-1.5 46.95-0.7 45.27 0.1 43.6 0.9 41.6 0.9L41.6 0.9Q33.55 0.9 33.55-7.8ZM74.05-20.05L74.05-20.05 74.25-17.05Q74.25-16.2 74.05-15.9 73.84-15.6 73.47-15.6 73.09-15.6 72.67-16.32 72.25-17.05 71.72-17.9 71.2-18.75 70.02-19.48 68.84-20.2 67.34-20.2 65.84-20.2 64.9-19.48 63.95-18.75 63.95-17.9 63.95-17.05 64.09-16.53 64.25-16 64.62-15.6 65-15.2 65.27-14.93 65.55-14.65 66.2-14.35 66.84-14.05 67.17-13.93 67.5-13.8 68.25-13.5L68.25-13.5Q72.8-11.9 74.09-10.38 75.4-8.85 75.4-6 75.4-3.15 72.75-0.75L72.75-0.75Q70.95 0.8 67.8 0.8L67.8 0.8Q65.65 0.8 63-0.25L63-0.25Q62.25-0.55 62.12-0.58 62-0.6 61.72-0.7 61.45-0.8 61.32-0.83 61.2-0.85 61-0.95 60.8-1.05 60.72-1.13 60.65-1.2 60.55-1.35L60.55-1.35Q60.4-1.6 60.4-2.15L60.4-2.15 60.4-6.5Q60.4-7.05 60.62-7.43 60.85-7.8 61.25-7.8 61.65-7.8 61.82-7.58 62-7.35 62.15-6.65 62.3-5.95 62.45-5.65L62.45-5.65Q64.3-1.05 67.65-1.05L67.65-1.05Q69.2-1.05 70.59-1.88 72-2.7 72-4.48 72-6.25 70.84-7.35 69.7-8.45 68.05-9.08 66.4-9.7 64.75-10.38 63.1-11.05 61.95-12.38 60.8-13.7 60.8-15.7L60.8-15.7Q60.8-18.5 63.05-20.2 65.3-21.9 68-21.9 70.7-21.9 72.09-21.48 73.5-21.05 73.77-20.7 74.05-20.35 74.05-20.05ZM83.89-0.25L83.89-0.25 80.34 0Q79.09 0 79.04-0.15 78.99-0.3 78.99-0.5L78.99-0.5Q78.99-1 79.59-1.15L79.59-1.15Q81.04-1.55 81.47-2.43 81.89-3.3 81.89-5L81.89-5 82.09-22.05 82.09-24.5Q82.09-31.3 81.79-32.8 81.49-34.3 79.99-34.3L79.99-34.3 79.34-34.3 79.14-34.35Q78.29-34.35 78.29-34.8 78.29-35.25 78.82-35.52 79.34-35.8 80.32-36.05 81.29-36.3 83.09-37.1 84.89-37.9 85.34-37.9L85.34-37.9Q85.99-37.9 85.99-36.75L85.99-36.75Q85.99-36.5 85.82-35.55 85.64-34.6 85.62-31.88 85.59-29.15 85.52-26.03 85.44-22.9 85.39-21.8L85.39-21.8Q85.29-19.7 85.29-18.85 85.29-18 85.69-18L85.69-18Q85.79-18 86.72-18.93 87.64-19.85 89.27-20.78 90.89-21.7 92.74-21.7L92.74-21.7Q96.79-21.7 99.04-19.3 101.29-16.9 101.29-11.85L101.29-11.85 101.29-4.6Q101.29-3.25 101.79-2.5 102.29-1.75 102.94-1.7L102.94-1.7Q105.64-1.45 105.64-0.65 105.64 0.15 104.09 0.15L104.09 0.15 99.89-0.1 96.04 0.05Q94.89 0.05 94.89-0.45L94.89-0.45Q94.89-1.35 96.24-1.35L96.24-1.35Q96.74-1.35 97.17-1.9 97.59-2.45 97.59-3.6L97.59-3.6 97.64-4.9 97.69-11.9Q97.69-14.95 95.84-17.18 93.99-19.4 91.57-19.4 89.14-19.4 86.64-17.45L86.64-17.45Q85.74-16.75 85.49-15.18 85.24-13.6 85.24-8.2L85.24-8.2 85.24-7.05Q85.24-4.8 85.59-3.4L85.59-3.4Q86.14-1.45 88.34-1.3L88.34-1.3Q89.04-1.25 89.42-1.13 89.79-1 89.79-0.6L89.79-0.6Q89.79 0 89.24 0L89.24 0 87.94-0.05Q86.64-0.1 85.32-0.18 83.99-0.25 83.89-0.25ZM110.89-1.05Q109.34-2.15 109.34-2.75 109.34-3.35 110.89-4.7L110.89-4.7Q111.09-4.9 111.47-5.4 111.84-5.9 112.22-6.18 112.59-6.45 112.99-6.45 113.39-6.45 115.04-4.5L115.04-4.5Q115.19-4.35 115.64-4L115.64-4Q116.54-3.15 116.54-2.83 116.54-2.5 116.29-2.23 116.04-1.95 115.54-1.55L115.54-1.55Q115.54-1.55 114.79-0.95L114.79-0.95Q114.59-0.75 114.24-0.25L114.24-0.25Q113.44 0.8 112.94 0.8 112.44 0.8 111.74-0.08 111.04-0.95 110.89-1.05L110.89-1.05ZM121.24-33.95L121.24-33.95 120.24-33.9Q119.24-33.9 119.24-34.45 119.24-35 121.69-35.75L121.69-35.75Q122.04-35.85 122.51-36 122.99-36.15 123.09-36.18 123.19-36.2 123.46-36.3 123.74-36.4 123.76-36.43 123.79-36.45 124.01-36.55 124.24-36.65 124.34-36.73 124.44-36.8 124.74-36.98 125.04-37.15 125.71-37.58 126.39-38 127.04-38 127.69-38 127.69-37.05L127.69-37.05Q127.69-36.95 127.64-36.48 127.59-36 127.51-35.08 127.44-34.15 127.39-32.8L127.39-32.8Q127.24-28.85 127.24-24.4L127.24-24.4Q127.24-24.4 127.09-14.15L127.09-14.15 127.09-13.1Q127.09-11 127.29-11L127.29-11Q127.74-11 128.21-11.5 128.69-12 128.89-12.15L128.89-12.15Q135.89-17.75 135.89-18.45 135.89-19.15 134.76-19.6 133.64-20.05 133.64-20.45L133.64-20.45Q133.64-20.95 134.24-20.95L134.24-20.95 135.14-20.9 142.49-21.15Q143.79-21.15 143.79-20.75 143.79-20.35 143.49-20.2 143.19-20.05 142.69-20L142.69-20Q141.04-19.75 138.99-18.35L138.99-18.35Q138.84-18.25 138.66-18.1 138.49-17.95 138.01-17.6 137.54-17.25 136.89-16.75 136.24-16.25 134.49-14.93 132.74-13.6 132.34-13.25 131.94-12.9 131.94-12.5 131.94-12.1 132.49-11.35L132.49-11.35Q137.04-5.8 140.29-2.95L140.29-2.95Q141.64-1.75 143.01-1.4 144.39-1.05 144.99-1.05 145.59-1.05 145.59-0.6L145.59-0.6Q145.59 0 145.16 0.13 144.74 0.25 143.54 0.25L143.54 0.25 138.34 0.2Q137.09 0.2 130.49-7.95L130.49-7.95Q129.19-9.55 129.06-9.75 128.94-9.95 128.51-9.95 128.09-9.95 127.56-9.25 127.04-8.55 127.04-7.65L127.04-7.65 127.09-6.8Q127.09-3.2 127.49-2.7L127.49-2.7Q127.54-2.65 127.96-2.08 128.39-1.5 130.06-1.2 131.74-0.9 131.74-0.45L131.74-0.45Q131.74 0.35 130.19 0.35L130.19 0.35 125.34 0.05 121.69 0.25Q120.49 0.25 120.49-0.35L120.49-0.35Q120.49-0.85 121.74-1.2L121.74-1.2Q122.89-1.65 123.19-2.5 123.49-3.35 123.49-5.8L123.49-5.8 123.54-8 123.59-30.2Q123.59-33.95 121.24-33.95ZM158.66 0.9Q153.54 0.9 150.51-2.38 147.49-5.65 147.49-10.2 147.49-14.75 150.61-18.15 153.74-21.55 158.86-21.55 163.99-21.55 167.46-18.6 170.94-15.65 170.94-10.4 170.94-5.15 167.36-2.13 163.79 0.9 158.66 0.9ZM158.09-20.2Q155.49-20.2 153.46-18.15 151.44-16.1 151.44-11.4 151.44-6.7 154.19-3.65 156.94-0.6 160.11-0.6 163.29-0.6 165.24-2.78 167.19-4.95 167.19-9.15 167.19-13.35 164.79-16.78 162.39-20.2 158.09-20.2L158.09-20.2ZM189.58-21.25L192.93-21.2 195.23-21.25Q196.08-21.25 196.36-21.1 196.63-20.95 196.63-20.6 196.63-20.25 196.38-20.1L196.38-20.1Q195.18-19.4 194.68-18.7L194.68-18.7Q193.43-17 191.08-12 188.73-7 186.78-3.15 184.83 0.7 184.08 0.7L184.08 0.7Q183.58 0.7 183.28 0.18 182.98-0.35 181.31-4.25 179.63-8.15 177.88-12.05 176.13-15.95 175.08-17.63 174.03-19.3 173.51-19.65 172.98-20 172.71-20.23 172.43-20.45 172.43-20.8L172.43-20.8Q172.43-21.35 173.38-21.35L173.38-21.35 176.93-21.15 179.83-21.1 181.78-21.25Q182.68-21.25 182.68-20.7L182.68-20.7Q182.68-19.85 181.48-19.85L181.48-19.85Q179.38-19.85 179.38-18.45L179.38-18.45Q179.38-17.65 180.18-15.93 180.98-14.2 181.63-12.83 182.28-11.45 182.71-10.53 183.13-9.6 183.83-7.95L183.83-7.95Q185.18-4.75 185.53-4.75L185.53-4.75Q186.03-4.75 188.58-10.8 191.13-16.85 191.13-17.93 191.13-19 190.66-19.43 190.18-19.85 189.58-19.8L189.58-19.8Q188.03-19.6 188.03-20.6L188.03-20.6Q188.03-21.25 189.58-21.25L189.58-21.25Z" opacity="1" transform="matrix(1,0,0,1,0,0)" fill="#ffffff" class="undefined-text-0" data-fill-palette-color="primary" id="text-0"></path></svg></g></svg></g></svg></g></svg></g><g><svg viewBox="0 0 81.50936402760034 81.50936402760033" height="81.50936402760033" width="81.50936402760034"><g><svg></svg></g><g id="icon-0"><svg viewBox="0 0 81.50936402760034 81.50936402760033" height="81.50936402760033" width="81.50936402760034"><g><path xmlns="http://www.w3.org/2000/svg" d="M24.453 81.509c-13.505 0-24.453-10.948-24.453-24.452v-32.604c0-13.505 10.948-24.453 24.453-24.453h32.604c13.505 0 24.453 10.948 24.452 24.453v32.604c0 13.505-10.948 24.453-24.452 24.452z" fill="#7fdbff" fill-rule="nonzero" stroke="none" stroke-width="1" stroke-linecap="butt" stroke-linejoin="miter" stroke-miterlimit="10" stroke-dasharray="" stroke-dashoffset="0" font-family="none" font-weight="none" font-size="none" text-anchor="none" style="mix-blend-mode: normal" data-fill-palette-color="accent"></path></g><g transform="matrix(1,0,0,1,16.301872805520073,16.301872805520066)"><svg viewBox="0 0 48.905618416560195 48.905618416560195" height="48.905618416560195" width="48.905618416560195"><g><svg xmlns="http://www.w3.org/2000/svg" xmlns:xlink="http://www.w3.org/1999/xlink" version="1.1" x="0" y="0" viewBox="0 0 100 100" enable-background="new 0 0 100 100" xml:space="preserve" height="48.905618416560195" width="48.905618416560195" class="icon-s-0" data-fill-palette-color="quaternary" id="s-0"><g fill="#444444" data-fill-palette-color="quaternary"><path d="M50 0C39.035 0 28.896 3.529 20.654 9.514L0 0l9.514 20.654C3.529 28.896 0 39.036 0 50.001c0 16.42 7.916 30.989 20.139 40.104-1.227-2.801-3.123-7.131-3.123-7.131-0.482-1.098-0.105-2.396 1.041-2.898s2.467-0.018 2.947 1.08l-1.012-2.311c-0.48-1.098 0.059-2.396 1.205-2.898s2.467-0.02 2.947 1.08l-0.928-2.117c-0.48-1.099 0.059-2.397 1.205-2.899s2.467-0.018 2.947 1.08l-4.174-10.42c-0.48-1.1-0.297-2.336 0.85-2.838 1.146-0.504 2.182 0.113 2.662 1.213 0 0 9.006 18.204 10.867 22.448 1.828 4.178 0.189 7.346 3.775 15.76C44.16 99.742 47.051 100 50 100c1.525 0 3.035-0.068 4.527-0.203 1.188-1.678 7.018-10.822 0.494-20.516-1.324-1.967-1.586-1.152-6.193-0.254s-6.303 0.486-8.008-2.396c-1.221-2.063-0.172-3.884-1.148-5.134-0.879-1.125-2.996-0.369-3.539-0.391-0.543-0.023-1.33-1.166-0.641-2.313 0.463-0.764 2.01-1.209-0.246-1.383-0.889-0.068-1.607-0.633-1.48-1.414 0.172-1.061 1.018-1.158 2.156-2.693 0.734-0.99 0.291-2.205-1.422-2.141-0.66 0.025-2.602 0.094-3.555-0.881-1.826-1.869 4.916-8.367 5.215-11.891 0.104-1.238-0.104-1.941-1.068-4.588-1.107-3.039-0.195-9.693 1.904-14.449 2.1-4.755 12.795-23.009 37.141-14.034 18.609 6.859 16.93 29.179 13.553 34.534-3.375 5.357-5.721 9.275-4.922 16.326 0.799 7.053 2.361 11.187 4.184 13.333 0.391 0.463 1.1 1.088 2.004 1.836C95.865 72.774 100 61.87 100 50.001 100 22.387 77.615 0 50 0z" fill="#444444" data-fill-palette-color="quaternary"></path></g></svg></g></svg></g></svg></g></svg></g></svg></g><defs></defs></svg><rect width="395.52" height="65.0503711788287" fill="none" stroke="none" visibility="hidden"></rect></g></svg></g></svg>